<mxfile host="app.diagrams.net" modified="2024-07-09T09:28:09.621Z" agent="Mozilla/5.0 (Macintosh; Intel Mac OS X 10_15_7) AppleWebKit/537.36 (KHTML, like Gecko) Chrome/126.0.0.0 Safari/537.36" etag="W8wkcwmhPFo6O5ZIiVU4" version="24.6.4" type="onedrive">
  <diagram name="Page-1" id="2z_yzARBqiGoR72a2h59">
    <mxGraphModel grid="1" page="1" gridSize="10" guides="1" tooltips="1" connect="1" arrows="1" fold="1" pageScale="1" pageWidth="850" pageHeight="1100" math="0" shadow="0">
      <root>
        <mxCell id="0" />
        <mxCell id="1" parent="0" />
        <mxCell id="HeFp6EwtRoWDKLP-dGdm-49" value="" style="whiteSpace=wrap;html=1;fillColor=none;dashed=1;dashPattern=1 2;" vertex="1" parent="1">
          <mxGeometry x="-460" y="-530" width="1900" height="1820" as="geometry" />
        </mxCell>
        <mxCell id="BtRRs1AipNndvJUo6PaD-9" value="" style="group" vertex="1" connectable="0" parent="1">
          <mxGeometry x="-69" y="160" width="156" height="183" as="geometry" />
        </mxCell>
        <mxCell id="BtRRs1AipNndvJUo6PaD-10" value="" style="whiteSpace=wrap;html=1;dashed=1;dashPattern=8 8;fillColor=none;strokeColor=#9673a6;" vertex="1" parent="BtRRs1AipNndvJUo6PaD-9">
          <mxGeometry width="156" height="183" as="geometry" />
        </mxCell>
        <mxCell id="BtRRs1AipNndvJUo6PaD-11" value="CBS Adapters" style="text;html=1;align=center;verticalAlign=middle;whiteSpace=wrap;rounded=0;fontSize=9;fillColor=#d5e8d4;strokeColor=#82b366;" vertex="1" parent="BtRRs1AipNndvJUo6PaD-9">
          <mxGeometry width="75" height="23" as="geometry" />
        </mxCell>
        <mxCell id="BtRRs1AipNndvJUo6PaD-14" value="" style="whiteSpace=wrap;html=1;dashed=1;dashPattern=8 8;fillColor=none;strokeColor=#9673a6;movable=1;resizable=1;rotatable=1;deletable=1;editable=1;locked=0;connectable=1;" vertex="1" parent="1">
          <mxGeometry x="-72" y="392" width="156" height="183" as="geometry" />
        </mxCell>
        <mxCell id="BtRRs1AipNndvJUo6PaD-3" value="" style="whiteSpace=wrap;html=1;" vertex="1" parent="1">
          <mxGeometry x="-62" y="160" width="149" height="184" as="geometry" />
        </mxCell>
        <mxCell id="o0oqG4mP_P4ncCSwfBv9-4" style="edgeStyle=orthogonalEdgeStyle;rounded=0;orthogonalLoop=1;jettySize=auto;html=1;flowAnimation=1;dashed=1;dashPattern=12 12;" edge="1" parent="1" target="o0oqG4mP_P4ncCSwfBv9-3">
          <mxGeometry relative="1" as="geometry">
            <mxPoint x="1286" y="421.76923076923094" as="sourcePoint" />
          </mxGeometry>
        </mxCell>
        <mxCell id="o0oqG4mP_P4ncCSwfBv9-2" value="" style="whiteSpace=wrap;html=1;dashed=1;" vertex="1" parent="1">
          <mxGeometry x="-90" y="-290" width="1120" height="1270" as="geometry" />
        </mxCell>
        <mxCell id="o0oqG4mP_P4ncCSwfBv9-6" style="edgeStyle=orthogonalEdgeStyle;rounded=0;orthogonalLoop=1;jettySize=auto;html=1;entryX=1;entryY=0.75;entryDx=0;entryDy=0;flowAnimation=1;dashed=1;" edge="1" parent="1" source="o0oqG4mP_P4ncCSwfBv9-3" target="o0oqG4mP_P4ncCSwfBv9-5">
          <mxGeometry relative="1" as="geometry" />
        </mxCell>
        <mxCell id="o0oqG4mP_P4ncCSwfBv9-3" value="ingress" style="ellipse;whiteSpace=wrap;html=1;fillColor=#B3B3B3;" vertex="1" parent="1">
          <mxGeometry x="633" y="406.5" width="54" height="53" as="geometry" />
        </mxCell>
        <mxCell id="o0oqG4mP_P4ncCSwfBv9-8" style="edgeStyle=orthogonalEdgeStyle;rounded=0;orthogonalLoop=1;jettySize=auto;html=1;exitX=0.5;exitY=0;exitDx=0;exitDy=0;entryX=0.5;entryY=1;entryDx=0;entryDy=0;flowAnimation=1;dashed=1;" edge="1" parent="1" source="o0oqG4mP_P4ncCSwfBv9-5" target="o0oqG4mP_P4ncCSwfBv9-7">
          <mxGeometry relative="1" as="geometry">
            <Array as="points">
              <mxPoint x="571" y="172" />
              <mxPoint x="309" y="172" />
              <mxPoint x="309" y="129" />
              <mxPoint x="274" y="129" />
            </Array>
          </mxGeometry>
        </mxCell>
        <mxCell id="o0oqG4mP_P4ncCSwfBv9-10" style="edgeStyle=orthogonalEdgeStyle;rounded=0;orthogonalLoop=1;jettySize=auto;html=1;exitX=0;exitY=0.5;exitDx=0;exitDy=0;entryX=1;entryY=0.5;entryDx=0;entryDy=0;dashed=1;flowAnimation=1;" edge="1" parent="1" source="o0oqG4mP_P4ncCSwfBv9-5" target="o0oqG4mP_P4ncCSwfBv9-9">
          <mxGeometry relative="1" as="geometry" />
        </mxCell>
        <mxCell id="o0oqG4mP_P4ncCSwfBv9-13" style="edgeStyle=orthogonalEdgeStyle;rounded=0;orthogonalLoop=1;jettySize=auto;html=1;exitX=0.25;exitY=1;exitDx=0;exitDy=0;entryX=0.25;entryY=0;entryDx=0;entryDy=0;flowAnimation=1;" edge="1" parent="1" source="o0oqG4mP_P4ncCSwfBv9-5" target="o0oqG4mP_P4ncCSwfBv9-11">
          <mxGeometry relative="1" as="geometry">
            <Array as="points">
              <mxPoint x="541" y="403" />
              <mxPoint x="600" y="403" />
              <mxPoint x="600" y="590" />
            </Array>
          </mxGeometry>
        </mxCell>
        <mxCell id="HeFp6EwtRoWDKLP-dGdm-45" style="edgeStyle=orthogonalEdgeStyle;rounded=0;orthogonalLoop=1;jettySize=auto;html=1;exitX=0.75;exitY=0;exitDx=0;exitDy=0;entryX=0;entryY=0.5;entryDx=0;entryDy=0;dashed=1;flowAnimation=1;" edge="1" parent="1" source="o0oqG4mP_P4ncCSwfBv9-5" target="HeFp6EwtRoWDKLP-dGdm-44">
          <mxGeometry relative="1" as="geometry" />
        </mxCell>
        <mxCell id="o0oqG4mP_P4ncCSwfBv9-5" value="api gateway" style="whiteSpace=wrap;html=1;fillColor=#fff2cc;strokeColor=#d6b656;" vertex="1" parent="1">
          <mxGeometry x="511" y="234" width="120" height="60" as="geometry" />
        </mxCell>
        <mxCell id="BtRRs1AipNndvJUo6PaD-23" style="edgeStyle=orthogonalEdgeStyle;rounded=0;orthogonalLoop=1;jettySize=auto;html=1;exitX=1;exitY=0.5;exitDx=0;exitDy=0;entryX=0.5;entryY=1;entryDx=0;entryDy=0;dashed=1;flowAnimation=1;" edge="1" parent="1" source="o0oqG4mP_P4ncCSwfBv9-7" target="BtRRs1AipNndvJUo6PaD-22">
          <mxGeometry relative="1" as="geometry" />
        </mxCell>
        <mxCell id="aZxM8rf4FDybqePDUtTl-4" style="edgeStyle=orthogonalEdgeStyle;rounded=0;orthogonalLoop=1;jettySize=auto;html=1;exitX=0;exitY=0.5;exitDx=0;exitDy=0;entryX=0.75;entryY=0;entryDx=0;entryDy=0;dashed=1;flowAnimation=1;" edge="1" parent="1" source="o0oqG4mP_P4ncCSwfBv9-7" target="BtRRs1AipNndvJUo6PaD-16">
          <mxGeometry relative="1" as="geometry">
            <Array as="points">
              <mxPoint x="214" y="53" />
              <mxPoint x="49" y="53" />
            </Array>
          </mxGeometry>
        </mxCell>
        <mxCell id="aZxM8rf4FDybqePDUtTl-5" value="authentication/authorization" style="edgeLabel;html=1;align=center;verticalAlign=middle;resizable=0;points=[];" vertex="1" connectable="0" parent="aZxM8rf4FDybqePDUtTl-4">
          <mxGeometry x="-0.2514" relative="1" as="geometry">
            <mxPoint x="-45" y="36" as="offset" />
          </mxGeometry>
        </mxCell>
        <mxCell id="o0oqG4mP_P4ncCSwfBv9-7" value="auth service" style="whiteSpace=wrap;html=1;fillColor=#fff2cc;strokeColor=#d6b656;" vertex="1" parent="1">
          <mxGeometry x="178" y="26" width="120" height="60" as="geometry" />
        </mxCell>
        <mxCell id="o0oqG4mP_P4ncCSwfBv9-12" style="edgeStyle=orthogonalEdgeStyle;rounded=0;orthogonalLoop=1;jettySize=auto;html=1;exitX=0.75;exitY=1;exitDx=0;exitDy=0;entryX=0;entryY=0.25;entryDx=0;entryDy=0;flowAnimation=1;" edge="1" parent="1" source="o0oqG4mP_P4ncCSwfBv9-9" target="o0oqG4mP_P4ncCSwfBv9-11">
          <mxGeometry relative="1" as="geometry" />
        </mxCell>
        <mxCell id="o0oqG4mP_P4ncCSwfBv9-15" style="edgeStyle=orthogonalEdgeStyle;rounded=0;orthogonalLoop=1;jettySize=auto;html=1;exitX=0.25;exitY=0;exitDx=0;exitDy=0;dashed=1;flowAnimation=1;entryX=1.022;entryY=0.409;entryDx=0;entryDy=0;entryPerimeter=0;" edge="1" parent="1" source="o0oqG4mP_P4ncCSwfBv9-9" target="BtRRs1AipNndvJUo6PaD-16">
          <mxGeometry relative="1" as="geometry">
            <Array as="points">
              <mxPoint x="229" y="212" />
              <mxPoint x="111" y="212" />
              <mxPoint x="111" y="229" />
            </Array>
          </mxGeometry>
        </mxCell>
        <mxCell id="BtRRs1AipNndvJUo6PaD-21" value="core-banking" style="edgeLabel;html=1;align=center;verticalAlign=middle;resizable=0;points=[];" vertex="1" connectable="0" parent="o0oqG4mP_P4ncCSwfBv9-15">
          <mxGeometry x="0.1144" y="1" relative="1" as="geometry">
            <mxPoint x="25" as="offset" />
          </mxGeometry>
        </mxCell>
        <mxCell id="BtRRs1AipNndvJUo6PaD-18" value="payments" style="edgeStyle=orthogonalEdgeStyle;rounded=0;orthogonalLoop=1;jettySize=auto;html=1;exitX=0;exitY=0.75;exitDx=0;exitDy=0;entryX=1;entryY=0.5;entryDx=0;entryDy=0;flowAnimation=1;dashed=1;" edge="1" parent="1" source="o0oqG4mP_P4ncCSwfBv9-9" target="BtRRs1AipNndvJUo6PaD-5">
          <mxGeometry relative="1" as="geometry">
            <Array as="points">
              <mxPoint x="194" y="287" />
              <mxPoint x="141" y="287" />
              <mxPoint x="141" y="483" />
            </Array>
          </mxGeometry>
        </mxCell>
        <mxCell id="o0oqG4mP_P4ncCSwfBv9-9" value="banking service" style="whiteSpace=wrap;html=1;fillColor=#fff2cc;strokeColor=#d6b656;" vertex="1" parent="1">
          <mxGeometry x="166" y="264" width="120" height="60" as="geometry" />
        </mxCell>
        <mxCell id="HeFp6EwtRoWDKLP-dGdm-34" style="edgeStyle=orthogonalEdgeStyle;rounded=0;orthogonalLoop=1;jettySize=auto;html=1;exitX=0;exitY=0.75;exitDx=0;exitDy=0;entryX=0.5;entryY=0;entryDx=0;entryDy=0;dashed=1;flowAnimation=1;" edge="1" parent="1" source="o0oqG4mP_P4ncCSwfBv9-11" target="HeFp6EwtRoWDKLP-dGdm-29">
          <mxGeometry relative="1" as="geometry" />
        </mxCell>
        <mxCell id="HeFp6EwtRoWDKLP-dGdm-37" value="kyc" style="edgeLabel;html=1;align=center;verticalAlign=middle;resizable=0;points=[];" vertex="1" connectable="0" parent="HeFp6EwtRoWDKLP-dGdm-34">
          <mxGeometry x="0.2173" y="2" relative="1" as="geometry">
            <mxPoint as="offset" />
          </mxGeometry>
        </mxCell>
        <mxCell id="o0oqG4mP_P4ncCSwfBv9-11" value="user service" style="whiteSpace=wrap;html=1;fillColor=#fff2cc;strokeColor=#d6b656;" vertex="1" parent="1">
          <mxGeometry x="569" y="590" width="120" height="60" as="geometry" />
        </mxCell>
        <mxCell id="o0oqG4mP_P4ncCSwfBv9-17" style="edgeStyle=orthogonalEdgeStyle;rounded=0;orthogonalLoop=1;jettySize=auto;html=1;flowAnimation=1;dashed=1;entryX=1;entryY=0.5;entryDx=0;entryDy=0;" edge="1" parent="1" source="o0oqG4mP_P4ncCSwfBv9-14" target="o0oqG4mP_P4ncCSwfBv9-16">
          <mxGeometry relative="1" as="geometry" />
        </mxCell>
        <mxCell id="BtRRs1AipNndvJUo6PaD-2" style="edgeStyle=orthogonalEdgeStyle;rounded=0;orthogonalLoop=1;jettySize=auto;html=1;exitX=0;exitY=0.5;exitDx=0;exitDy=0;flowAnimation=1;dashed=1;" edge="1" parent="1" source="BtRRs1AipNndvJUo6PaD-4" target="BtRRs1AipNndvJUo6PaD-1">
          <mxGeometry relative="1" as="geometry" />
        </mxCell>
        <mxCell id="o0oqG4mP_P4ncCSwfBv9-14" value="mambu-adapter" style="whiteSpace=wrap;html=1;fillColor=#f8cecc;strokeColor=#b85450;" vertex="1" parent="1">
          <mxGeometry x="-55" y="188" width="116" height="34" as="geometry" />
        </mxCell>
        <mxCell id="o0oqG4mP_P4ncCSwfBv9-16" value="Mambu CBS" style="whiteSpace=wrap;html=1;fillColor=#f8cecc;strokeColor=#b85450;" vertex="1" parent="1">
          <mxGeometry x="-309" y="100" width="120" height="98" as="geometry" />
        </mxCell>
        <mxCell id="BtRRs1AipNndvJUo6PaD-1" value="Tuum CBS" style="whiteSpace=wrap;html=1;fillColor=#f8cecc;strokeColor=#b85450;" vertex="1" parent="1">
          <mxGeometry x="-309" y="239" width="120" height="101" as="geometry" />
        </mxCell>
        <mxCell id="BtRRs1AipNndvJUo6PaD-8" value="" style="group" vertex="1" connectable="0" parent="1">
          <mxGeometry x="-66" y="154" width="155" height="183" as="geometry" />
        </mxCell>
        <mxCell id="BtRRs1AipNndvJUo6PaD-16" value="" style="whiteSpace=wrap;html=1;dashed=1;dashPattern=8 8;fillColor=none;strokeColor=#9673a6;" vertex="1" parent="BtRRs1AipNndvJUo6PaD-8">
          <mxGeometry x="-0.9935897435897436" width="155" height="183" as="geometry" />
        </mxCell>
        <mxCell id="BtRRs1AipNndvJUo6PaD-6" value="CBS Adapters" style="text;html=1;align=center;verticalAlign=middle;whiteSpace=wrap;rounded=0;fontSize=9;fillColor=#d5e8d4;strokeColor=#82b366;" vertex="1" parent="BtRRs1AipNndvJUo6PaD-8">
          <mxGeometry width="74.51923076923077" height="23" as="geometry" />
        </mxCell>
        <mxCell id="BtRRs1AipNndvJUo6PaD-4" value="tuum-adapter" style="whiteSpace=wrap;html=1;fillColor=#f8cecc;strokeColor=#b85450;" vertex="1" parent="1">
          <mxGeometry x="-55" y="234" width="117" height="33" as="geometry" />
        </mxCell>
        <mxCell id="BtRRs1AipNndvJUo6PaD-20" style="edgeStyle=orthogonalEdgeStyle;rounded=0;orthogonalLoop=1;jettySize=auto;html=1;exitX=0;exitY=0.5;exitDx=0;exitDy=0;entryX=1;entryY=0.5;entryDx=0;entryDy=0;flowAnimation=1;dashed=1;" edge="1" parent="1" source="BtRRs1AipNndvJUo6PaD-5" target="BtRRs1AipNndvJUo6PaD-19">
          <mxGeometry relative="1" as="geometry" />
        </mxCell>
        <mxCell id="BtRRs1AipNndvJUo6PaD-19" value="Numeral" style="whiteSpace=wrap;html=1;fillColor=#dae8fc;strokeColor=#6c8ebf;" vertex="1" parent="1">
          <mxGeometry x="-310" y="585" width="120" height="101" as="geometry" />
        </mxCell>
        <mxCell id="HeFp6EwtRoWDKLP-dGdm-16" style="edgeStyle=orthogonalEdgeStyle;rounded=0;orthogonalLoop=1;jettySize=auto;html=1;exitX=0;exitY=0.5;exitDx=0;exitDy=0;entryX=0.5;entryY=1;entryDx=0;entryDy=0;dashed=1;flowAnimation=1;" edge="1" parent="1" source="BtRRs1AipNndvJUo6PaD-22" target="BtRRs1AipNndvJUo6PaD-27">
          <mxGeometry relative="1" as="geometry" />
        </mxCell>
        <mxCell id="BtRRs1AipNndvJUo6PaD-22" value="otp service" style="whiteSpace=wrap;html=1;fillColor=#fff2cc;strokeColor=#d6b656;" vertex="1" parent="1">
          <mxGeometry x="506" y="-32" width="120" height="39" as="geometry" />
        </mxCell>
        <mxCell id="BtRRs1AipNndvJUo6PaD-24" value="Twilio" style="whiteSpace=wrap;html=1;fillColor=#f8cecc;strokeColor=#b85450;" vertex="1" parent="1">
          <mxGeometry x="387" y="-458" width="120" height="98" as="geometry" />
        </mxCell>
        <mxCell id="BtRRs1AipNndvJUo6PaD-25" value="" style="group" vertex="1" connectable="0" parent="1">
          <mxGeometry x="363" y="-250" width="156" height="183" as="geometry" />
        </mxCell>
        <mxCell id="BtRRs1AipNndvJUo6PaD-27" value="" style="whiteSpace=wrap;html=1;dashed=1;dashPattern=8 8;fillColor=none;strokeColor=#9673a6;" vertex="1" parent="BtRRs1AipNndvJUo6PaD-25">
          <mxGeometry x="-1" width="156" height="183" as="geometry" />
        </mxCell>
        <mxCell id="BtRRs1AipNndvJUo6PaD-26" value="Notification Adapters" style="text;html=1;align=center;verticalAlign=middle;whiteSpace=wrap;rounded=0;fontSize=9;fillColor=#D5E8D4;strokeColor=#D5E8D4;" vertex="1" parent="BtRRs1AipNndvJUo6PaD-25">
          <mxGeometry width="99" height="23" as="geometry" />
        </mxCell>
        <mxCell id="BtRRs1AipNndvJUo6PaD-28" value="twilio-adapter" style="whiteSpace=wrap;html=1;fillColor=#ffe6cc;strokeColor=#d79b00;" vertex="1" parent="BtRRs1AipNndvJUo6PaD-25">
          <mxGeometry x="8" y="34" width="110" height="38" as="geometry" />
        </mxCell>
        <mxCell id="aZxM8rf4FDybqePDUtTl-1" style="edgeStyle=orthogonalEdgeStyle;rounded=0;orthogonalLoop=1;jettySize=auto;html=1;exitX=0.75;exitY=0;exitDx=0;exitDy=0;entryX=0.25;entryY=1;entryDx=0;entryDy=0;dashed=1;flowAnimation=1;" edge="1" parent="1" source="BtRRs1AipNndvJUo6PaD-27" target="BtRRs1AipNndvJUo6PaD-24">
          <mxGeometry relative="1" as="geometry">
            <Array as="points">
              <mxPoint x="467" y="-302" />
              <mxPoint x="417" y="-302" />
            </Array>
          </mxGeometry>
        </mxCell>
        <mxCell id="HeFp6EwtRoWDKLP-dGdm-11" value="Application Gateway" style="overflow=block;blockSpacing=1;whiteSpace=wrap;image;aspect=fixed;html=1;points=[];align=center;verticalAlign=top;image=img/lib/mscae/Application_Gateway.svg;fontSize=13;spacing=0;strokeColor=#5e5e5e;strokeOpacity=100;rounded=1;absoluteArcSize=1;arcSize=9;fillColor=#7FBA00;strokeWidth=2.3;lucidId=yAqGiUUvlTo3;" vertex="1" parent="1">
          <mxGeometry x="977" y="392" width="79" height="71" as="geometry" />
        </mxCell>
        <mxCell id="HeFp6EwtRoWDKLP-dGdm-15" style="edgeStyle=orthogonalEdgeStyle;rounded=0;orthogonalLoop=1;jettySize=auto;html=1;exitX=0;exitY=0.75;exitDx=0;exitDy=0;entryX=1;entryY=0.5;entryDx=0;entryDy=0;dashed=1;flowAnimation=1;" edge="1" parent="1" source="HeFp6EwtRoWDKLP-dGdm-13" target="o0oqG4mP_P4ncCSwfBv9-3">
          <mxGeometry relative="1" as="geometry" />
        </mxCell>
        <mxCell id="HeFp6EwtRoWDKLP-dGdm-13" value="API Management " style="html=1;overflow=block;blockSpacing=1;whiteSpace=wrap;fontSize=13;spacing=0;strokeColor=#5e5e5e;strokeOpacity=100;fillOpacity=100;rounded=1;absoluteArcSize=1;arcSize=9;fillColor=#198ab3;dashed=1;fixDash=1;strokeWidth=2.3;lucidId=yAqGRTnpg_jy;" vertex="1" parent="1">
          <mxGeometry x="766" y="402.5" width="102" height="56.5" as="geometry" />
        </mxCell>
        <mxCell id="HeFp6EwtRoWDKLP-dGdm-14" value="" style="edgeStyle=none;orthogonalLoop=1;jettySize=auto;html=1;rounded=0;dashed=1;flowAnimation=1;" edge="1" parent="1" source="HeFp6EwtRoWDKLP-dGdm-11" target="HeFp6EwtRoWDKLP-dGdm-13">
          <mxGeometry width="80" relative="1" as="geometry">
            <mxPoint x="752" y="315" as="sourcePoint" />
            <mxPoint x="832" y="315" as="targetPoint" />
            <Array as="points" />
          </mxGeometry>
        </mxCell>
        <mxCell id="HeFp6EwtRoWDKLP-dGdm-28" value="" style="group" vertex="1" connectable="0" parent="1">
          <mxGeometry x="388" y="752" width="156" height="183" as="geometry" />
        </mxCell>
        <mxCell id="HeFp6EwtRoWDKLP-dGdm-29" value="" style="whiteSpace=wrap;html=1;dashed=1;dashPattern=8 8;fillColor=none;strokeColor=#9673a6;" vertex="1" parent="HeFp6EwtRoWDKLP-dGdm-28">
          <mxGeometry x="-1" width="156" height="183" as="geometry" />
        </mxCell>
        <mxCell id="HeFp6EwtRoWDKLP-dGdm-30" value="KYC Adapters" style="text;html=1;align=center;verticalAlign=middle;whiteSpace=wrap;rounded=0;fontSize=9;fillColor=#D5E8D4;strokeColor=#82b366;" vertex="1" parent="HeFp6EwtRoWDKLP-dGdm-28">
          <mxGeometry width="99" height="23" as="geometry" />
        </mxCell>
        <mxCell id="HeFp6EwtRoWDKLP-dGdm-31" value="sumsub-adapter" style="whiteSpace=wrap;html=1;fillColor=#FFCE9F;strokeColor=#82b366;" vertex="1" parent="HeFp6EwtRoWDKLP-dGdm-28">
          <mxGeometry x="8" y="34" width="110" height="38" as="geometry" />
        </mxCell>
        <mxCell id="HeFp6EwtRoWDKLP-dGdm-33" value="forthline-adapter" style="whiteSpace=wrap;html=1;fillColor=#FFCE9F;strokeColor=#82b366;" vertex="1" parent="HeFp6EwtRoWDKLP-dGdm-28">
          <mxGeometry x="9" y="83" width="110" height="38" as="geometry" />
        </mxCell>
        <mxCell id="HeFp6EwtRoWDKLP-dGdm-35" style="edgeStyle=orthogonalEdgeStyle;rounded=0;orthogonalLoop=1;jettySize=auto;html=1;exitX=1;exitY=0.25;exitDx=0;exitDy=0;entryX=0.75;entryY=1;entryDx=0;entryDy=0;dashed=1;flowAnimation=1;" edge="1" parent="1" source="HeFp6EwtRoWDKLP-dGdm-29" target="o0oqG4mP_P4ncCSwfBv9-11">
          <mxGeometry relative="1" as="geometry" />
        </mxCell>
        <mxCell id="HeFp6EwtRoWDKLP-dGdm-36" value="webhook" style="edgeLabel;html=1;align=center;verticalAlign=middle;resizable=0;points=[];" vertex="1" connectable="0" parent="HeFp6EwtRoWDKLP-dGdm-35">
          <mxGeometry x="-0.0481" y="-1" relative="1" as="geometry">
            <mxPoint y="-16" as="offset" />
          </mxGeometry>
        </mxCell>
        <mxCell id="HeFp6EwtRoWDKLP-dGdm-38" value="Sumsub" style="whiteSpace=wrap;html=1;fillColor=#FFCE9F;strokeColor=#9673a6;" vertex="1" parent="1">
          <mxGeometry x="340" y="1052" width="120" height="101" as="geometry" />
        </mxCell>
        <mxCell id="HeFp6EwtRoWDKLP-dGdm-39" value="Forthline" style="whiteSpace=wrap;html=1;fillColor=#FFCE9F;strokeColor=#9673a6;" vertex="1" parent="1">
          <mxGeometry x="478" y="1052" width="120" height="101" as="geometry" />
        </mxCell>
        <mxCell id="HeFp6EwtRoWDKLP-dGdm-40" style="edgeStyle=orthogonalEdgeStyle;rounded=0;orthogonalLoop=1;jettySize=auto;html=1;exitX=0.25;exitY=1;exitDx=0;exitDy=0;entryX=0.5;entryY=0;entryDx=0;entryDy=0;dashed=1;flowAnimation=1;" edge="1" parent="1" source="HeFp6EwtRoWDKLP-dGdm-29" target="HeFp6EwtRoWDKLP-dGdm-38">
          <mxGeometry relative="1" as="geometry" />
        </mxCell>
        <mxCell id="HeFp6EwtRoWDKLP-dGdm-41" style="edgeStyle=orthogonalEdgeStyle;rounded=0;orthogonalLoop=1;jettySize=auto;html=1;exitX=0.75;exitY=1;exitDx=0;exitDy=0;dashed=1;flowAnimation=1;" edge="1" parent="1" source="HeFp6EwtRoWDKLP-dGdm-29" target="HeFp6EwtRoWDKLP-dGdm-39">
          <mxGeometry relative="1" as="geometry" />
        </mxCell>
        <mxCell id="HeFp6EwtRoWDKLP-dGdm-43" value="&lt;b&gt;Client Channel &lt;/b&gt;&lt;br&gt;( Mobile &amp;amp; Web)" style="html=1;overflow=block;blockSpacing=1;whiteSpace=wrap;fontSize=16.7;fontColor=#333333;spacing=3.8;strokeOpacity=0;fillOpacity=0;rounded=1;absoluteArcSize=1;arcSize=9;fillColor=#ffffff;strokeWidth=2.3;lucidId=yAqG6X8Uf8wj;" vertex="1" parent="1">
          <mxGeometry x="1214" y="470" width="215" height="48" as="geometry" />
        </mxCell>
        <mxCell id="HeFp6EwtRoWDKLP-dGdm-44" value="translation service" style="whiteSpace=wrap;html=1;fillColor=#fff2cc;strokeColor=#d6b656;" vertex="1" parent="1">
          <mxGeometry x="687" y="96" width="120" height="39" as="geometry" />
        </mxCell>
        <mxCell id="HeFp6EwtRoWDKLP-dGdm-46" value="" style="group" vertex="1" connectable="0" parent="1">
          <mxGeometry x="-69" y="506" width="156" height="183" as="geometry" />
        </mxCell>
        <mxCell id="BtRRs1AipNndvJUo6PaD-5" value="" style="whiteSpace=wrap;html=1;dashed=1;dashPattern=8 8;fillColor=none;strokeColor=#9673a6;" vertex="1" parent="HeFp6EwtRoWDKLP-dGdm-46">
          <mxGeometry width="156" height="183" as="geometry" />
        </mxCell>
        <mxCell id="BtRRs1AipNndvJUo6PaD-15" value="Payment Adapters" style="text;html=1;align=center;verticalAlign=middle;whiteSpace=wrap;rounded=0;fontSize=9;fillColor=#D5E8D4;strokeColor=#9673a6;" vertex="1" parent="HeFp6EwtRoWDKLP-dGdm-46">
          <mxGeometry x="1" width="87" height="23" as="geometry" />
        </mxCell>
        <mxCell id="o0oqG4mP_P4ncCSwfBv9-18" value="numeral-adapter" style="whiteSpace=wrap;html=1;fillColor=#dae8fc;strokeColor=#6c8ebf;" vertex="1" parent="HeFp6EwtRoWDKLP-dGdm-46">
          <mxGeometry x="7" y="37" width="116" height="37" as="geometry" />
        </mxCell>
        <mxCell id="aZxM8rf4FDybqePDUtTl-8" value="PRIVATE&amp;nbsp; / PUBLIC CONTAINER" style="text;html=1;align=center;verticalAlign=middle;whiteSpace=wrap;rounded=0;fontSize=20;fontFamily=Verdana;fontStyle=1" vertex="1" parent="1">
          <mxGeometry x="-69" y="-280" width="240" height="47" as="geometry" />
        </mxCell>
        <mxCell id="HeFp6EwtRoWDKLP-dGdm-56" value="Marqeta" style="whiteSpace=wrap;html=1;fillColor=#fff2cc;strokeColor=#d6b656;" vertex="1" parent="1">
          <mxGeometry x="-308" y="849" width="120" height="101" as="geometry" />
        </mxCell>
        <mxCell id="HeFp6EwtRoWDKLP-dGdm-60" style="edgeStyle=orthogonalEdgeStyle;rounded=0;orthogonalLoop=1;jettySize=auto;html=1;exitX=0;exitY=0.5;exitDx=0;exitDy=0;entryX=1;entryY=0.5;entryDx=0;entryDy=0;flowAnimation=1;dashed=1;" edge="1" parent="1" source="HeFp6EwtRoWDKLP-dGdm-57" target="HeFp6EwtRoWDKLP-dGdm-56">
          <mxGeometry relative="1" as="geometry" />
        </mxCell>
        <mxCell id="HeFp6EwtRoWDKLP-dGdm-57" value="" style="whiteSpace=wrap;html=1;dashed=1;dashPattern=8 8;fillColor=none;strokeColor=#9673a6;" vertex="1" parent="1">
          <mxGeometry x="-67" y="770" width="156" height="183" as="geometry" />
        </mxCell>
        <mxCell id="HeFp6EwtRoWDKLP-dGdm-58" value="Card Adapters" style="text;html=1;align=center;verticalAlign=middle;whiteSpace=wrap;rounded=0;fontSize=9;fillColor=#D5E8D4;strokeColor=#9673a6;" vertex="1" parent="1">
          <mxGeometry x="-67" y="770" width="87" height="23" as="geometry" />
        </mxCell>
        <mxCell id="HeFp6EwtRoWDKLP-dGdm-59" value="marqeta-adapter" style="whiteSpace=wrap;html=1;fillColor=#fff2cc;strokeColor=#d6b656;" vertex="1" parent="1">
          <mxGeometry x="-60" y="812" width="116" height="37" as="geometry" />
        </mxCell>
        <mxCell id="HeFp6EwtRoWDKLP-dGdm-61" value="" style="outlineConnect=0;dashed=0;verticalLabelPosition=bottom;verticalAlign=top;align=center;html=1;shape=mxgraph.aws3.workspaces;fillColor=#D16A28;gradientColor=#F58435;gradientDirection=north;" vertex="1" parent="1">
          <mxGeometry x="1275" y="368.5" width="82.5" height="94.5" as="geometry" />
        </mxCell>
      </root>
    </mxGraphModel>
  </diagram>
</mxfile>
